control3min_grf.mot
version=1
nRows=30
nColumns 19
inDegrees=yes
endheader
time	1_ground_force_vx	1_ground_force_vy	1_ground_force_vz	1_ground_force_px	1_ground_force_py	1_ground_force_pz	1_ground_torque_x	1_ground_torque_y	1_ground_torque_z	2_ground_force_vx	2_ground_force_vy	2_ground_force_vz	2_ground_force_px	2_ground_force_py	2_ground_force_pz	2_ground_torque_x	2_ground_torque_y	2_ground_torque_z
            3.751500	          -45.869977	         1257.605949	          -97.580813	           -0.132622	            0.006143	           -0.382444	           -0.070237	            1.925673	           -0.149418	          -62.568394	         1369.817204	          118.855796	           -0.150565	            0.006017	           -0.719316	            0.076980	           -1.685338	           -0.146233
            3.752000	          -45.640102	         1254.000801	          -97.596840	           -0.132557	            0.006143	           -0.382447	           -0.065849	            1.809268	           -0.140812	          -62.699104	         1367.055529	          118.564432	           -0.150459	            0.006018	           -0.719471	            0.074440	           -1.623047	           -0.140767
            3.752500	          -44.951154	         1251.836051	          -97.240976	           -0.132489	            0.006144	           -0.382521	           -0.067742	            1.886529	           -0.146543	          -63.386002	         1362.634208	          118.314328	           -0.150285	            0.006018	           -0.719394	            0.068896	           -1.481088	           -0.128599
            3.753000	          -44.583167	         1248.770518	          -96.979898	           -0.132326	            0.006144	           -0.382541	           -0.072021	            2.017295	           -0.156664	          -63.140596	         1359.505651	          117.974554	           -0.150040	            0.006020	           -0.719461	            0.070172	           -1.510907	           -0.131113
            3.753500	          -44.077092	         1245.163213	          -96.538042	           -0.132204	            0.006144	           -0.382597	           -0.076431	            2.159154	           -0.167400	          -63.358294	         1354.901606	          117.817450	           -0.149914	            0.006020	           -0.719517	            0.070313	           -1.503630	           -0.130750
            3.754000	          -43.754905	         1243.719381	          -96.132323	           -0.132276	            0.006143	           -0.382350	           -0.073325	            2.084231	           -0.161099	          -63.112161	         1351.588467	          117.617811	           -0.149634	            0.006021	           -0.719463	            0.065709	           -1.407192	           -0.122457
            3.754500	          -43.615549	         1239.932076	          -95.690329	           -0.132292	            0.006143	           -0.382430	           -0.067689	            1.924305	           -0.148506	          -63.186653	         1346.248368	          117.458005	           -0.149341	            0.006022	           -0.719376	            0.060757	           -1.294488	           -0.112942
            3.755000	          -42.926679	         1236.325790	          -95.478220	           -0.132180	            0.006143	           -0.382409	           -0.062267	            1.793336	           -0.138495	          -63.033532	         1342.750643	          117.304684	           -0.149226	            0.006022	           -0.719429	            0.058505	           -1.246274	           -0.108876
            3.755500	          -42.373969	         1232.717362	          -94.715497	           -0.132068	            0.006143	           -0.382417	           -0.059689	            1.736428	           -0.133418	          -63.350311	         1339.619888	          117.012085	           -0.149191	            0.006023	           -0.719542	            0.056160	           -1.187573	           -0.103731
            3.756000	          -41.685403	         1230.192806	          -94.544602	           -0.132011	            0.006143	           -0.382384	           -0.063225	            1.865855	           -0.143397	          -63.240780	         1335.201610	          116.714707	           -0.148924	            0.006024	           -0.719549	            0.049756	           -1.050501	           -0.091828
            3.756500	          -41.179431	         1225.864955	          -94.197558	           -0.131980	            0.006144	           -0.382486	           -0.066771	            1.987700	           -0.152738	          -63.085070	         1330.967824	          116.417967	           -0.148802	            0.006024	           -0.719525	            0.049156	           -1.037102	           -0.090714
            3.757000	          -40.490399	         1222.619112	          -93.892182	           -0.131834	            0.006144	           -0.382493	           -0.069315	            2.092985	           -0.160733	          -63.300835	         1325.811799	          116.118100	           -0.148522	            0.006025	           -0.719422	            0.047589	           -0.996741	           -0.087297
            3.757500	          -40.167851	         1219.192143	          -93.494966	           -0.131773	            0.006143	           -0.382402	           -0.066729	            2.025389	           -0.155319	          -63.050797	         1321.394363	          115.726806	           -0.148429	            0.006025	           -0.719424	            0.046692	           -0.978549	           -0.085701
            3.758000	          -39.570222	         1215.044728	          -93.147375	           -0.131698	            0.006144	           -0.382524	           -0.059309	            1.821131	           -0.139611	          -62.847426	         1316.975252	          115.757877	           -0.148227	            0.006026	           -0.719501	            0.040813	           -0.855251	           -0.075174
            3.758500	          -39.246796	         1211.796604	          -92.382538	           -0.131668	            0.006143	           -0.382448	           -0.056585	            1.747122	           -0.133194	          -62.603370	         1314.215265	          115.372497	           -0.148136	            0.006027	           -0.719661	            0.041227	           -0.865458	           -0.075977
            3.759000	          -38.649362	         1207.469164	          -92.127426	           -0.131554	            0.006143	           -0.382455	           -0.052959	            1.654513	           -0.126236	          -62.355847	         1310.533464	          115.312336	           -0.148020	            0.006027	           -0.719645	            0.037038	           -0.778419	           -0.068492
            3.759500	          -37.868557	         1203.141758	          -91.872783	           -0.131339	            0.006144	           -0.382469	           -0.055987	            1.778801	           -0.135831	          -62.290016	         1305.195469	          114.636267	           -0.147854	            0.006028	           -0.719598	            0.033632	           -0.704704	           -0.061895
            3.760000	          -37.454156	         1200.075251	          -91.382528	           -0.131463	            0.006143	           -0.382293	           -0.059338	            1.901262	           -0.144776	          -61.897375	         1300.225800	          114.383720	           -0.147624	            0.006028	           -0.719468	            0.029125	           -0.611809	           -0.053822
            3.760500	          -36.719211	         1195.207267	          -91.175943	           -0.131271	            0.006144	           -0.382457	           -0.059253	            1.928685	           -0.147129	          -62.024630	         1296.542234	          114.370638	           -0.147602	            0.006029	           -0.719622	            0.028808	           -0.602187	           -0.053120
            3.761000	          -36.212265	         1191.778564	          -90.366467	           -0.131214	            0.006143	           -0.382414	           -0.058217	            1.915964	           -0.145278	          -61.397882	         1291.574582	          113.789501	           -0.147424	            0.006030	           -0.719635	            0.027019	           -0.568375	           -0.050075
            3.761500	          -35.660158	         1188.351293	          -89.832248	           -0.131198	            0.006143	           -0.382281	           -0.051389	            1.712492	           -0.129454	          -61.006673	         1286.973908	          113.303635	           -0.147224	            0.006030	           -0.719636	            0.026690	           -0.563036	           -0.049569
            3.762000	          -35.245378	         1182.580906	          -89.399455	           -0.131108	            0.006143	           -0.382373	           -0.046759	            1.568892	           -0.118603	          -60.662837	         1282.555974	          113.146949	           -0.147100	            0.006030	           -0.719511	            0.021293	           -0.450186	           -0.039715
            3.762500	          -34.831632	         1178.073845	          -89.282231	           -0.130991	            0.006144	           -0.382455	           -0.045754	            1.547501	           -0.117280	          -60.176430	         1277.585896	          113.035152	           -0.146939	            0.006031	           -0.719527	            0.015309	           -0.325018	           -0.028756
            3.763000	          -34.187380	         1174.645806	          -88.564816	           -0.130949	            0.006143	           -0.382274	           -0.048590	            1.669496	           -0.125875	          -59.880816	         1273.536531	          112.785930	           -0.146910	            0.006031	           -0.719624	            0.011174	           -0.237638	           -0.021046
            3.763500	          -33.452078	         1170.317802	          -88.172488	           -0.130853	            0.006143	           -0.382331	           -0.052605	            1.840370	           -0.138655	          -59.445311	         1269.671752	          112.537319	           -0.146887	            0.006032	           -0.719705	            0.011751	           -0.250981	           -0.022246
            3.764000	          -32.763028	         1166.350972	          -87.916056	           -0.130802	            0.006142	           -0.382157	           -0.051592	            1.836643	           -0.138441	          -59.006585	         1264.887168	          112.050775	           -0.146705	            0.006033	           -0.719737	            0.007052	           -0.151179	           -0.013392
            3.764500	          -32.302619	         1161.121556	          -87.526911	           -0.130774	            0.006143	           -0.382320	           -0.045700	            1.642707	           -0.123829	          -58.517028	         1258.997787	          111.560269	           -0.146530	            0.006033	           -0.719622	            0.006698	           -0.144107	           -0.012769
            3.765000	          -31.749844	         1157.152292	          -86.765735	           -0.130816	            0.006143	           -0.382252	           -0.041992	            1.530455	           -0.114757	          -57.702153	         1253.845986	          111.119172	           -0.146381	            0.006033	           -0.719562	            0.001163	           -0.025262	           -0.002239
            3.765500	          -31.244079	         1152.104089	          -86.559338	           -0.130600	            0.006143	           -0.382309	           -0.038532	            1.420832	           -0.106749	          -57.498864	         1249.427543	          110.962546	           -0.146353	            0.006033	           -0.719596	           -0.001699	            0.036913	            0.003278
            3.766000	          -30.508028	         1147.414313	          -85.893429	           -0.130545	            0.006143	           -0.382262	           -0.038352	            1.442433	           -0.107978	          -56.313138	         1245.381727	          110.619089	           -0.146359	            0.006033	           -0.719616	           -0.000682	            0.015092	            0.001341
